<?xml version="1.0" encoding="UTF-8" standalone="no"?>
<!-- Created with Inkscape (http://www.inkscape.org/) -->

<svg
   version="1.1"
   id="svg1"
   width="254.66667"
   height="161.33333"
   viewBox="0 0 254.66667 161.33333"
   xmlns="http://www.w3.org/2000/svg"
   xmlns:svg="http://www.w3.org/2000/svg">
  <defs
     id="defs1">
    <clipPath
       clipPathUnits="userSpaceOnUse"
       id="clipPath3">
      <path
         d="M 0,0 H 1910 V 1210 H 0 Z M 575.199,682.078 V 804.91 H 350.953 L 521.027,743.18 350.953,682.078 Z"
         transform="translate(0,-2.5000001e-5)"
         clip-rule="evenodd"
         id="path3" />
    </clipPath>
    <clipPath
       clipPathUnits="userSpaceOnUse"
       id="clipPath6">
      <path
         d="M 0,0 H 1910 V 1210 H 0 Z M 46.082,521.457 V 398.625 h 224.246 l -170.074,61.102 170.074,61.73 z"
         transform="translate(0,-2.5000001e-5)"
         clip-rule="evenodd"
         id="path6" />
    </clipPath>
    <clipPath
       clipPathUnits="userSpaceOnUse"
       id="clipPath9">
      <path
         d="M 0,0 H 1910 V 1210 H 0 Z M 1151.56,804.91 V 682.078 h 224.24 l -170.07,61.102 170.07,61.73 z"
         transform="translate(0,-2.5000001e-5)"
         clip-rule="evenodd"
         id="path9" />
    </clipPath>
    <clipPath
       clipPathUnits="userSpaceOnUse"
       id="clipPath12">
      <path
         d="M 0,0 H 1910 V 1210 H 0 Z m 1709.02,398.625 v 122.832 h -224.25 l 170.08,-61.73 -170.08,-61.102 z"
         transform="translate(0,-2.5000001e-5)"
         clip-rule="evenodd"
         id="path12" />
    </clipPath>
  </defs>
  <g
     id="g1">
    <path
       id="path1"
       d="M 877.551,1168.36 V 34.543"
       style="fill:none;stroke:#000000;stroke-width:37.794;stroke-linecap:butt;stroke-linejoin:miter;stroke-miterlimit:10;stroke-dasharray:none;stroke-opacity:1"
       transform="matrix(0.13333333,0,0,-0.13333333,0,161.33333)" />
    <path
       id="path2"
       d="M 27.1836,743.18 H 565.75"
       style="fill:none;stroke:#000000;stroke-width:28.3455;stroke-linecap:butt;stroke-linejoin:miter;stroke-miterlimit:10;stroke-dasharray:none;stroke-opacity:1"
       transform="matrix(0.13333333,0,0,-0.13333333,0,161.33333)"
       clip-path="url(#clipPath3)" />
    <path
       id="path4"
       d="M 350.953,682.078 521.027,743.18 350.953,804.91"
       style="fill:none;stroke:#000000;stroke-width:28.3455;stroke-linecap:butt;stroke-linejoin:miter;stroke-miterlimit:10;stroke-dasharray:none;stroke-opacity:1"
       transform="matrix(0.13333333,0,0,-0.13333333,0,161.33333)" />
    <path
       id="path5"
       d="M 594.094,459.727 H 55.5313"
       style="fill:none;stroke:#000000;stroke-width:28.3455;stroke-linecap:butt;stroke-linejoin:miter;stroke-miterlimit:10;stroke-dasharray:none;stroke-opacity:1"
       transform="matrix(0.13333333,0,0,-0.13333333,0,161.33333)"
       clip-path="url(#clipPath6)" />
    <path
       id="path7"
       d="M 270.328,521.457 100.254,459.727 270.328,398.625"
       style="fill:none;stroke:#000000;stroke-width:28.3455;stroke-linecap:butt;stroke-linejoin:miter;stroke-miterlimit:10;stroke-dasharray:none;stroke-opacity:1"
       transform="matrix(0.13333333,0,0,-0.13333333,0,161.33333)" />
    <path
       id="path8"
       d="M 1699.57,743.18 H 1161"
       style="fill:none;stroke:#000000;stroke-width:28.3455;stroke-linecap:butt;stroke-linejoin:miter;stroke-miterlimit:10;stroke-dasharray:none;stroke-opacity:1"
       transform="matrix(0.13333333,0,0,-0.13333333,0,161.33333)"
       clip-path="url(#clipPath9)" />
    <path
       id="path10"
       d="M 1375.8,804.91 1205.73,743.18 1375.8,682.078"
       style="fill:none;stroke:#000000;stroke-width:28.3455;stroke-linecap:butt;stroke-linejoin:miter;stroke-miterlimit:10;stroke-dasharray:none;stroke-opacity:1"
       transform="matrix(0.13333333,0,0,-0.13333333,0,161.33333)" />
    <path
       id="path11"
       d="m 1161,459.727 h 538.57"
       style="fill:none;stroke:#000000;stroke-width:28.3455;stroke-linecap:butt;stroke-linejoin:miter;stroke-miterlimit:10;stroke-dasharray:none;stroke-opacity:1"
       transform="matrix(0.13333333,0,0,-0.13333333,0,161.33333)"
       clip-path="url(#clipPath12)" />
    <path
       id="path13"
       d="m 1484.77,398.625 170.08,61.102 -170.08,61.73"
       style="fill:none;stroke:#000000;stroke-width:28.3455;stroke-linecap:butt;stroke-linejoin:miter;stroke-miterlimit:10;stroke-dasharray:none;stroke-opacity:1"
       transform="matrix(0.13333333,0,0,-0.13333333,0,161.33333)" />
    <path
       id="path14"
       d="m 9.5521141,-17.881789 c -5.0507813,0 -8.64843754,3.773437 -8.64843754,9.1289062 0,2.484375 0.84375004,4.921875 2.27343754,6.421875 1.5351562,1.67578124 3.890625,2.70703124 6.2226562,2.70703124 5.2031247,0 8.8124997,-3.67968754 8.8124997,-9.02343754 0,-2.6249999 -0.773437,-4.8984379 -2.226562,-6.4570309 -1.664063,-1.828125 -3.890625,-2.777344 -6.4335939,-2.777344 z m 0,0.949219 c 1.2187499,0 2.4374999,0.480468 3.3867189,1.324218 1.429687,1.289063 2.25,3.785157 2.25,6.9257817 0,1.5703125 -0.316406,3.3867187 -0.867188,4.7695312 -0.246093,0.65625 -0.691406,1.3242188 -1.300781,1.9335938 -0.925781,0.9257812 -2.121094,1.39453124 -3.5156249,1.39453124 -1.21875,0 -2.4140625,-0.46875004 -3.3632813,-1.28906254 -1.3476562,-1.21875 -2.2265625,-3.890625 -2.2265625,-6.8320312 0,-2.6953122 0.7382813,-5.2617192 1.8515625,-6.5039062 1.03125,-1.136719 2.3320313,-1.722656 3.7851563,-1.722656 z M 31.779653,-1.3231953 h -0.140625 c -1.289062,-0.046875 -1.476562,-0.2578125 -1.5,-1.5117188 v -9.0703129 h -4.183594 v 0.445313 c 1.640625,0.08203 1.957032,0.351562 1.957032,1.6757812 v 6.2109375 c 0,0.7382812 -0.128907,1.1132812 -0.503907,1.40625 -0.714843,0.5859375 -1.535156,0.9023437 -2.332031,0.9023437 -1.03125,0 -1.875,-0.9023437 -1.875,-2.015625 v -8.6250004 h -3.867187 v 0.375 c 1.242187,0.04687 1.617187,0.421875 1.640625,1.6875004 v 6.6679688 c 0,2.0859375 1.277343,3.44531249 3.210937,3.44531249 0.972656,0 2.003906,-0.43359375 2.71875,-1.1484375 l 1.136719,-1.13671879 v 2.20312504 l 0.105469,0.046875 c 1.324218,-0.52734375 2.273437,-0.8203125 3.632812,-1.18359375 z m 7.300781,-10.5820317 h -2.671875 v -3.070312 c 0,-0.269531 -0.05859,-0.339844 -0.1875,-0.339844 -1.535156,2.214844 -2.332031,3.117188 -3.09375,3.5625 -0.292968,0.1875 -0.457031,0.351563 -0.457031,0.503906 0,0.08203 0.03516,0.140625 0.105469,0.1875 h 1.40625 v 7.9687504 c 0,2.21484379 0.796875,3.36328129 2.355469,3.36328129 1.300781,0 2.296875,-0.64453125 3.175781,-2.01562499 l -0.339844,-0.2929688 c -0.585937,0.6914063 -1.007812,0.9257813 -1.59375,0.9257813 -0.972656,0 -1.371094,-0.7148438 -1.371094,-2.3789063 v -7.5703129 h 2.671875 z m 3.720704,11.90625044 h 7.3125 v -0.3984375 c -2.039063,0 -2.496094,-0.29296875 -2.519532,-1.55859374 V -17.834914 l -0.210937,-0.04687 -4.757813,2.402344 v 0.375 c 1.03125,-0.398438 1.664063,-0.585938 1.898438,-0.585938 0.5625,0 0.796875,0.398438 0.796875,1.242188 v 11.9882809 c -0.05859,1.66406254 -0.503906,2.03906254 -2.519531,2.06250004 z M 3.3148094,-70.862258 h 7.8515626 v -0.503906 c -2.1679689,-0.04687 -2.5312501,-0.421875 -2.5898439,-2.378906 v -11.753907 c 0.058594,-1.980468 0.3984375,-2.296875 2.5898439,-2.378906 v -0.503906 H 3.3148094 v 0.503906 c 2.25,0.128906 2.53125,0.398438 2.5664062,2.378906 v 11.753907 c -0.035156,2.003906 -0.3515625,2.296875 -2.5664062,2.378906 z m 8.8095706,0 h 5.601562 v -0.398437 c -1.324219,-0.08203 -1.746094,-0.421875 -1.746094,-1.371094 v -7.441406 c 1.277344,-1.183594 1.851563,-1.5 2.730469,-1.5 1.300781,0 1.933594,0.820312 1.933594,2.566406 v 5.519531 c -0.05859,1.722656 -0.375,2.144531 -1.675781,2.226563 v 0.398437 h 5.507812 v -0.398437 c -1.300781,-0.128907 -1.582031,-0.445313 -1.617187,-1.746094 v -6.058594 c 0,-2.484375 -1.160157,-3.972656 -3.117188,-3.972656 -1.21875,0 -2.039062,0.457031 -3.832031,2.144531 v -2.085937 l -0.1875,-0.05859 c -1.382813,0.503906 -2.273438,0.796875 -3.65625,1.195312 v 0.445313 c 0.1875,-0.07031 0.421875,-0.105469 0.714844,-0.105469 0.738281,0 0.984375,0.398438 0.984375,1.699219 v 6.5625 c -0.03516,1.558594 -0.316407,1.898437 -1.640625,1.980469 z m 15.864258,0 h 7.3125 v -0.398437 c -2.039063,0 -2.496094,-0.292969 -2.519532,-1.558594 v -15.878906 l -0.210937,-0.04687 -4.757813,2.402343 v 0.375 c 1.03125,-0.398437 1.664063,-0.585937 1.898438,-0.585937 0.5625,0 0.796875,0.398437 0.796875,1.242187 v 11.988282 c -0.05859,1.664062 -0.503906,2.039062 -2.519531,2.0625 z m 100.045902,0 h 7.85156 v -0.503906 c -2.16797,-0.04687 -2.53125,-0.421875 -2.58985,-2.378906 v -11.753907 c 0.0586,-1.980468 0.39844,-2.296875 2.58985,-2.378906 v -0.503906 h -7.85156 v 0.503906 c 2.25,0.128906 2.53125,0.398438 2.5664,2.378906 v 11.753907 c -0.0352,2.003906 -0.35156,2.296875 -2.5664,2.378906 z m 8.80957,0 h 5.60156 v -0.398437 c -1.32422,-0.08203 -1.7461,-0.421875 -1.7461,-1.371094 v -7.441406 c 1.27735,-1.183594 1.85157,-1.5 2.73047,-1.5 1.30078,0 1.9336,0.820312 1.9336,2.566406 v 5.519531 c -0.0586,1.722656 -0.375,2.144531 -1.67578,2.226563 v 0.398437 h 5.50781 v -0.398437 c -1.30078,-0.128907 -1.58203,-0.445313 -1.61719,-1.746094 v -6.058594 c 0,-2.484375 -1.16016,-3.972656 -3.11719,-3.972656 -1.21875,0 -2.03906,0.457031 -3.83203,2.144531 v -2.085937 l -0.1875,-0.05859 c -1.38281,0.503906 -2.27344,0.796875 -3.65625,1.195312 v 0.445313 c 0.1875,-0.07031 0.42188,-0.105469 0.71485,-0.105469 0.73828,0 0.98437,0.398438 0.98437,1.699219 v 6.5625 c -0.0352,1.558594 -0.31641,1.898437 -1.64062,1.980469 z m 25.32129,-3.621094 -0.35157,-0.140625 c -0.97265,1.535157 -1.26562,1.722657 -2.50781,1.746094 h -6.32812 l 4.4414,-4.652344 c 2.35547,-2.460937 3.38672,-4.476562 3.38672,-6.539062 0,-2.648438 -2.14453,-4.675781 -4.88672,-4.675781 -1.46484,0 -2.83594,0.574218 -3.80859,1.640625 -0.85547,0.890625 -1.25391,1.746093 -1.69922,3.621093 l 0.55078,0.128907 c 1.06641,-2.589844 1.99219,-3.433594 3.84375,-3.433594 2.25,0 3.72656,1.5 3.72656,3.726562 0,2.085938 -1.21875,4.523438 -3.43359,6.878907 l -4.71094,5.003906 v 0.316406 h 10.3125 z m -27.89356,56.601563 c -5.05078,0 -8.64844,3.773437 -8.64844,9.1289062 0,2.484375 0.84375,4.921875 2.27344,6.421875 1.53516,1.67578124 3.89063,2.70703124 6.22266,2.70703124 5.20312,0 8.8125,-3.67968754 8.8125,-9.02343754 0,-2.6249999 -0.77344,-4.8984379 -2.22657,-6.4570309 -1.66406,-1.828125 -3.89062,-2.777344 -6.43359,-2.777344 z m 0,0.949219 c 1.21875,0 2.4375,0.480468 3.38672,1.324218 1.42969,1.289063 2.25,3.785157 2.25,6.9257817 0,1.5703125 -0.31641,3.3867187 -0.86719,4.7695312 -0.24609,0.65625 -0.6914,1.3242188 -1.30078,1.9335938 -0.92578,0.9257812 -2.12109,1.39453124 -3.51562,1.39453124 -1.21875,0 -2.41407,-0.46875004 -3.36329,-1.28906254 -1.34765,-1.21875 -2.22656,-3.890625 -2.22656,-6.8320312 0,-2.6953122 0.73828,-5.2617192 1.85156,-6.5039062 1.03125,-1.136719 2.33204,-1.722656 3.78516,-1.722656 z m 22.23047,15.6093747 h -0.14063 c -1.28906,-0.046875 -1.47656,-0.2578125 -1.5,-1.5117188 v -9.0703129 h -4.18359 v 0.445313 c 1.64063,0.08203 1.95703,0.351562 1.95703,1.6757812 v 6.2109375 c 0,0.7382812 -0.1289,1.1132812 -0.5039,1.40625 -0.71485,0.5859375 -1.53516,0.9023437 -2.33204,0.9023437 -1.03125,0 -1.875,-0.9023437 -1.875,-2.015625 V -11.905227 H 144.057 v 0.375 c 1.24218,0.04687 1.61718,0.421875 1.64062,1.6875004 v 6.6679688 c 0,2.0859375 1.27735,3.44531249 3.21094,3.44531249 0.97266,0 2.00391,-0.43359375 2.71875,-1.1484375 l 1.13672,-1.13671879 v 2.20312504 l 0.10547,0.046875 c 1.32422,-0.52734375 2.27343,-0.8203125 3.63281,-1.18359375 z m 7.29785,-10.5820317 h -2.67187 v -3.070312 c 0,-0.269531 -0.0586,-0.339844 -0.1875,-0.339844 -1.53516,2.214844 -2.33204,3.117188 -3.09375,3.5625 -0.29297,0.1875 -0.45704,0.351563 -0.45704,0.503906 0,0.08203 0.0352,0.140625 0.10547,0.1875 h 1.40625 v 7.9687504 c 0,2.21484379 0.79688,3.36328129 2.35547,3.36328129 1.30078,0 2.29688,-0.64453125 3.17578,-2.01562499 l -0.33984,-0.2929688 c -0.58594,0.6914063 -1.00781,0.9257813 -1.59375,0.9257813 -0.97266,0 -1.37109,-0.7148438 -1.37109,-2.3789063 v -7.5703129 h 2.67187 z m 13.17774,8.2851567 -0.35157,-0.140625 c -0.97265,1.5351562 -1.26562,1.7226562 -2.50781,1.7460937 h -6.32812 l 4.4414,-4.6523437 c 2.35547,-2.4609375 3.38672,-4.4765627 3.38672,-6.5390627 0,-2.648437 -2.14453,-4.675781 -4.88672,-4.675781 -1.46484,0 -2.83594,0.574219 -3.80859,1.640625 -0.85547,0.890625 -1.25391,1.746094 -1.69922,3.621094 l 0.55078,0.128906 c 1.06641,-2.589844 1.99219,-3.433594 3.84375,-3.433594 2.25,0 3.72656,1.5 3.72656,3.726563 0,2.085937 -1.21875,4.5234372 -3.43359,6.8789059 l -4.71094,5.00390629 v 0.31640625 h 10.3125 z m 0,0"
       style="fill:#000000;fill-opacity:1;fill-rule:nonzero;stroke:none"
       aria-label="Out1&#10;In1In2&#10;Out2"
       transform="matrix(1.3333333,0,0,1.3333333,14.963067,137.83067)" />
  </g>
</svg>
